<mxfile host="Electron" modified="2023-08-21T10:51:23.223Z" agent="5.0 (Windows NT 10.0; Win64; x64) AppleWebKit/537.36 (KHTML, like Gecko) draw.io/20.3.0 Chrome/104.0.5112.114 Electron/20.1.3 Safari/537.36" etag="RqA5-zyOsULb4RIJx4AD" compressed="false" version="20.3.0" type="device">
  <diagram name="PA001A" id="niyRM2aHHlUjIJ9G2u65">
    <mxGraphModel dx="1422" dy="977" grid="1" gridSize="2" guides="1" tooltips="1" connect="1" arrows="1" fold="1" page="1" pageScale="1" pageWidth="1169" pageHeight="827" math="0" shadow="0">
      <root>
        <mxCell id="0Z7Euv1iOjBeARqL6lf6-0" />
        <mxCell id="0Z7Euv1iOjBeARqL6lf6-124" value="Connection" style="" parent="0Z7Euv1iOjBeARqL6lf6-0" />
        <object label="Connection" PipingConnector="N" LabelConnector="N" SignalConnector="N" Direction="270" AuxiliaryConnector="Y" id="0Z7Euv1iOjBeARqL6lf6-125">
          <mxCell style="vsdxID=1407;fillColor=none;gradientColor=none;shape=stencil(rVFbDsIgEDwNnyQU4glqvcfGblsilmZBS28vZGMsxg9j/JvZmX1kR5g2TLCg0CpE8hdcbR8nYY5CaztPSDZmJEwnTDt4wpH8be6ZL1CcBV39vUxI3KdKh1YbswPTEzuBzlmiVGmKau9zUKM+jlJJQrJBko8QrZ+rrQ5oRJnXyMHBWElhRVx25ebnw/5zVvPFWRm83jxY5zilvf4eSy5xpKZ7AA==);strokeColor=#00FF00;strokeWidth=1;points=[[0.5,0.5,0,0,0]];labelBackgroundColor=none;rounded=0;html=1;whiteSpace=wrap;aspect=fixed;noLabel=1;snapToPoint=1;container=0;fontSize=16;" parent="0Z7Euv1iOjBeARqL6lf6-124" vertex="1">
            <mxGeometry x="378" y="378" width="12" height="12" as="geometry" />
          </mxCell>
        </object>
        <object label="Connection" PipingConnector="N" LabelConnector="N" SignalConnector="Y" Direction="90" id="vE1TTy3x12R6GTV-R7Ch-1">
          <mxCell style="vsdxID=1407;fillColor=none;gradientColor=none;shape=stencil(rVFbDsIgEDwNnyQU4glqvcfGblsilmZBS28vZGMsxg9j/JvZmX1kR5g2TLCg0CpE8hdcbR8nYY5CaztPSDZmJEwnTDt4wpH8be6ZL1CcBV39vUxI3KdKh1YbswPTEzuBzlmiVGmKau9zUKM+jlJJQrJBko8QrZ+rrQ5oRJnXyMHBWElhRVx25ebnw/5zVvPFWRm83jxY5zilvf4eSy5xpKZ7AA==);strokeColor=#00FF00;strokeWidth=1;points=[[0.5,0.5,0,0,0]];labelBackgroundColor=none;rounded=0;html=1;whiteSpace=wrap;aspect=fixed;noLabel=1;snapToPoint=1;container=0;fontSize=16;" parent="0Z7Euv1iOjBeARqL6lf6-124" vertex="1">
            <mxGeometry x="378" y="170" width="12" height="12" as="geometry" />
          </mxCell>
        </object>
        <mxCell id="0Z7Euv1iOjBeARqL6lf6-130" value="Label" style="" parent="0Z7Euv1iOjBeARqL6lf6-0" />
        <object label="%LabelLines%&amp;nbsp; &amp;nbsp; &amp;nbsp; &amp;nbsp; &amp;nbsp; &amp;nbsp;%LabelIndex%" placeholders="1" LabelLines="1" LabelIndex="A" id="4tD6nZ1J1VW12751n8QK-0">
          <mxCell style="rounded=0;whiteSpace=wrap;html=1;fillColor=none;strokeColor=#FF0000;fontColor=#FF0000;fontSize=10;align=left;" vertex="1" parent="0Z7Euv1iOjBeARqL6lf6-130">
            <mxGeometry x="346" y="216" width="80" height="16" as="geometry" />
          </mxCell>
        </object>
        <object label="%LabelLines%&amp;nbsp; &amp;nbsp; &amp;nbsp; &amp;nbsp; &amp;nbsp; &amp;nbsp;%LabelIndex%" placeholders="1" LabelLines="1" LabelIndex="B" id="4tD6nZ1J1VW12751n8QK-1">
          <mxCell style="rounded=0;whiteSpace=wrap;html=1;fillColor=none;strokeColor=#FF0000;fontColor=#FF0000;fontSize=10;align=left;" vertex="1" parent="0Z7Euv1iOjBeARqL6lf6-130">
            <mxGeometry x="272" y="273" width="80" height="16" as="geometry" />
          </mxCell>
        </object>
        <mxCell id="0Z7Euv1iOjBeARqL6lf6-134" value="Origo" style="locked=1;" parent="0Z7Euv1iOjBeARqL6lf6-0" visible="0" />
        <object label="origo" id="0Z7Euv1iOjBeARqL6lf6-135">
          <mxCell style="vsdxID=1407;fillColor=none;gradientColor=none;shape=stencil(rVFbDsIgEDwNnyQU4glqvcfGblsilmZBS28vZGMsxg9j/JvZmX1kR5g2TLCg0CpE8hdcbR8nYY5CaztPSDZmJEwnTDt4wpH8be6ZL1CcBV39vUxI3KdKh1YbswPTEzuBzlmiVGmKau9zUKM+jlJJQrJBko8QrZ+rrQ5oRJnXyMHBWElhRVx25ebnw/5zVvPFWRm83jxY5zilvf4eSy5xpKZ7AA==);strokeColor=#ff0000;strokeWidth=1;points=[[0.5,0.5,0,0,0]];labelBackgroundColor=none;rounded=0;html=1;whiteSpace=wrap;aspect=fixed;noLabel=1;snapToPoint=1;" parent="0Z7Euv1iOjBeARqL6lf6-134" vertex="1">
            <mxGeometry x="380.06" y="380.06" width="7.874" height="7.87" as="geometry" />
          </mxCell>
        </object>
        <object label="Symbol" Width="6" Height="13" UoM="mm" id="0Z7Euv1iOjBeARqL6lf6-136">
          <mxCell style="locked=1;" parent="0Z7Euv1iOjBeARqL6lf6-0" />
        </object>
        <mxCell id="0Z7Euv1iOjBeARqL6lf6-137" value="" style="ellipse;whiteSpace=wrap;html=1;aspect=fixed;strokeWidth=1;fillColor=none;" parent="0Z7Euv1iOjBeARqL6lf6-136" vertex="1">
          <mxGeometry x="336" y="176" width="96" height="96" as="geometry" />
        </mxCell>
        <mxCell id="NWP20wVnBHUxS9ftFeqk-0" value="" style="endArrow=none;html=1;rounded=0;entryX=0.5;entryY=1;entryDx=0;entryDy=0;" parent="0Z7Euv1iOjBeARqL6lf6-136" target="0Z7Euv1iOjBeARqL6lf6-137" edge="1">
          <mxGeometry width="50" height="50" relative="1" as="geometry">
            <mxPoint x="384" y="384" as="sourcePoint" />
            <mxPoint x="470" y="340" as="targetPoint" />
          </mxGeometry>
        </mxCell>
      </root>
    </mxGraphModel>
  </diagram>
</mxfile>
